Saira-PARAMETRIC-JUN_XTSP50.ufo
<glyph name="exclam" format="2">
  <advance width="248.54348"/>
  <unicode hex="0021"/>
  <outline>
    <contour>
      <point x="95.87" y="197.457" type="curve"/>
      <point x="158.652" y="197.457" type="line"/>
      <point x="166" y="339.109"/>
      <point x="174.522" y="515.348"/>
      <point x="174.522" y="585.565" type="curve" smooth="yes"/>
      <point x="174.522" y="688" type="line"/>
      <point x="80" y="688" type="line"/>
      <point x="80" y="585.565" type="line" smooth="yes"/>
      <point x="80" y="515.348"/>
      <point x="88.522" y="339.109"/>
    </contour>
    <contour>
      <point x="79.891" y="0" type="line"/>
      <point x="174.63" y="0" type="line"/>
      <point x="174.63" y="97.609" type="line"/>
      <point x="79.891" y="97.609" type="line"/>
    </contour>
  </outline>
</glyph>
<glyph name="parenright" format="2">
  <advance width="307.80435"/>
  <unicode hex="0029"/>
  <outline>
    <contour>
      <point x="20" y="-150" type="curve"/>
      <point x="80.717" y="-150" type="line"/>
      <point x="190.326" y="-20.739"/>
      <point x="227.587" y="34"/>
      <point x="227.587" y="297" type="curve" smooth="yes"/>
      <point x="227.587" y="559"/>
      <point x="190.326" y="617"/>
      <point x="80.717" y="743" type="curve"/>
      <point x="20" y="743" type="line"/>
      <point x="104.739" y="632.348"/>
      <point x="149.109" y="581.522"/>
      <point x="149.109" y="297" type="curve" smooth="yes"/>
      <point x="149.109" y="11.391"/>
      <point x="104.739" y="-39.348"/>
    </contour>
  </outline>
</glyph>
<glyph name="A" format="2">
  <advance width="616"/>
  <unicode hex="0041"/>
  <anchor x="308" y="0" name="bottom"/>
  <anchor x="554" y="10" name="ogonek"/>
  <anchor x="308" y="688" name="top"/>
  <outline>
    <contour>
      <point x="5" y="0" type="line"/>
      <point x="92" y="0" type="line"/>
      <point x="305" y="620" type="line"/>
      <point x="311" y="620" type="line"/>
      <point x="524" y="0" type="line"/>
      <point x="611" y="0" type="line"/>
      <point x="372" y="688" type="line"/>
      <point x="244" y="688" type="line"/>
    </contour>
    <contour>
      <point x="120" y="189" type="line"/>
      <point x="495" y="189" type="line"/>
      <point x="468" y="263" type="line"/>
      <point x="147" y="263" type="line"/>
    </contour>
  </outline>
</glyph>
<glyph name="B" format="2">
  <advance width="607"/>
  <unicode hex="0042"/>
  <anchor x="291" y="0" name="bottom"/>
  <anchor x="291" y="688" name="top"/>
  <outline>
    <contour>
      <point x="50" y="0" type="line"/>
      <point x="316" y="0" type="line" smooth="yes"/>
      <point x="511" y="0"/>
      <point x="564" y="40"/>
      <point x="564" y="190" type="curve" smooth="yes"/>
      <point x="564" y="197" type="line" smooth="yes"/>
      <point x="564" y="335"/>
      <point x="510" y="375"/>
      <point x="316" y="375" type="curve" smooth="yes"/>
      <point x="116" y="375" type="line"/>
      <point x="116" y="315" type="line"/>
      <point x="316" y="315" type="line" smooth="yes"/>
      <point x="457" y="315"/>
      <point x="482" y="299"/>
      <point x="482" y="211" type="curve" smooth="yes"/>
      <point x="482" y="176" type="line" smooth="yes"/>
      <point x="482" y="89"/>
      <point x="457" y="74"/>
      <point x="316" y="74" type="curve" smooth="yes"/>
      <point x="95" y="74" type="line"/>
      <point x="132" y="43" type="line"/>
      <point x="132" y="645" type="line"/>
      <point x="95" y="614" type="line"/>
      <point x="302" y="614" type="line" smooth="yes"/>
      <point x="443" y="614"/>
      <point x="468" y="600"/>
      <point x="468" y="518" type="curve" smooth="yes"/>
      <point x="468" y="483" type="line" smooth="yes"/>
      <point x="468" y="400"/>
      <point x="443" y="385"/>
      <point x="302" y="385" type="curve" smooth="yes"/>
      <point x="116" y="385" type="line"/>
      <point x="116" y="325" type="line"/>
      <point x="302" y="325" type="line" smooth="yes"/>
      <point x="496" y="325"/>
      <point x="550" y="364"/>
      <point x="550" y="497" type="curve" smooth="yes"/>
      <point x="550" y="504" type="line" smooth="yes"/>
      <point x="550" y="649"/>
      <point x="497" y="688"/>
      <point x="302" y="688" type="curve" smooth="yes"/>
      <point x="50" y="688" type="line"/>
    </contour>
  </outline>
</glyph>
<glyph name="C" format="2">
  <advance width="524"/>
  <unicode hex="0043"/>
  <anchor x="246" y="0" name="bottom"/>
  <anchor x="246" y="688" name="top"/>
  <outline>
    <contour>
      <point x="316" y="-8" type="curve" smooth="yes"/>
      <point x="372" y="-8"/>
      <point x="438" y="-3"/>
      <point x="476" y="5" type="curve"/>
      <point x="476" y="76" type="line"/>
      <point x="439" y="70"/>
      <point x="376" y="66"/>
      <point x="316" y="66" type="curve" smooth="yes"/>
      <point x="133" y="66"/>
      <point x="120" y="83"/>
      <point x="120" y="310" type="curve" smooth="yes"/>
      <point x="120" y="378" type="line" smooth="yes"/>
      <point x="120" y="605"/>
      <point x="133" y="622"/>
      <point x="316" y="622" type="curve" smooth="yes"/>
      <point x="373" y="622"/>
      <point x="429" y="618"/>
      <point x="472" y="612" type="curve"/>
      <point x="472" y="681" type="line"/>
      <point x="435" y="690"/>
      <point x="370" y="696"/>
      <point x="316" y="696" type="curve" smooth="yes"/>
      <point x="80" y="696"/>
      <point x="38" y="644"/>
      <point x="38" y="349" type="curve" smooth="yes"/>
      <point x="38" y="339" type="line" smooth="yes"/>
      <point x="38" y="44"/>
      <point x="80" y="-8"/>
    </contour>
  </outline>
</glyph>
<glyph name="D" format="2">
  <advance width="592"/>
  <unicode hex="0044"/>
  <anchor x="290" y="0" name="bottom"/>
  <anchor x="120" y="344" name="center"/>
  <anchor x="290" y="688" name="top"/>
  <outline>
    <contour>
      <point x="50" y="0" type="line"/>
      <point x="276" y="0" type="line" smooth="yes"/>
      <point x="512" y="0"/>
      <point x="554" y="51"/>
      <point x="554" y="339" type="curve" smooth="yes"/>
      <point x="554" y="349" type="line" smooth="yes"/>
      <point x="554" y="637"/>
      <point x="512" y="688"/>
      <point x="276" y="688" type="curve" smooth="yes"/>
      <point x="50" y="688" type="line"/>
    </contour>
    <contour>
      <point x="132" y="37" type="line"/>
      <point x="132" y="651" type="line"/>
      <point x="95" y="614" type="line"/>
      <point x="276" y="614" type="line" smooth="yes"/>
      <point x="459" y="614"/>
      <point x="472" y="597"/>
      <point x="472" y="377" type="curve" smooth="yes"/>
      <point x="472" y="311" type="line" smooth="yes"/>
      <point x="472" y="91"/>
      <point x="459" y="74"/>
      <point x="276" y="74" type="curve" smooth="yes"/>
      <point x="95" y="74" type="line"/>
    </contour>
  </outline>
</glyph>
<glyph name="E" format="2">
  <advance width="518"/>
  <unicode hex="0045"/>
  <anchor x="247" y="0" name="bottom"/>
  <anchor x="484" y="10" name="ogonek"/>
  <anchor x="247" y="688" name="top"/>
  <anchor x="-30" y="688" name="topleft"/>
  <outline>
    <contour>
      <point x="95" y="385" type="line"/>
      <point x="95" y="311" type="line"/>
      <point x="446" y="311" type="line"/>
      <point x="446" y="385" type="line"/>
    </contour>
    <contour>
      <point x="132" y="37" type="line"/>
      <point x="132" y="651" type="line"/>
      <point x="95" y="614" type="line"/>
      <point x="493" y="614" type="line"/>
      <point x="493" y="688" type="line"/>
      <point x="50" y="688" type="line"/>
      <point x="50" y="0" type="line"/>
      <point x="493" y="0" type="line"/>
      <point x="493" y="74" type="line"/>
      <point x="95" y="74" type="line"/>
    </contour>
  </outline>
</glyph>
<glyph name="F" format="2">
  <advance width="503"/>
  <unicode hex="0046"/>
  <anchor x="237" y="0" name="bottom"/>
  <anchor x="237" y="688" name="top"/>
  <outline>
    <contour>
      <point x="95" y="375" type="line"/>
      <point x="95" y="301" type="line"/>
      <point x="436" y="301" type="line"/>
      <point x="436" y="375" type="line"/>
    </contour>
    <contour>
      <point x="132" y="0" type="line"/>
      <point x="132" y="651" type="line"/>
      <point x="95" y="614" type="line"/>
      <point x="483" y="614" type="line"/>
      <point x="483" y="688" type="line"/>
      <point x="50" y="688" type="line"/>
      <point x="50" y="0" type="line"/>
    </contour>
  </outline>
</glyph>
<glyph name="G" format="2">
  <advance width="594"/>
  <unicode hex="0047"/>
  <anchor x="302" y="0" name="bottom"/>
  <anchor x="302" y="688" name="top"/>
  <outline>
    <contour>
      <point x="360" y="-8" type="curve" smooth="yes"/>
      <point x="429" y="-8"/>
      <point x="504" y="1"/>
      <point x="546" y="15" type="curve"/>
      <point x="546" y="370" type="line"/>
      <point x="307" y="370" type="line"/>
      <point x="307" y="300" type="line"/>
      <point x="466" y="300" type="line"/>
      <point x="466" y="72" type="line"/>
      <point x="430" y="68"/>
      <point x="393" y="66"/>
      <point x="355" y="66" type="curve" smooth="yes"/>
      <point x="136" y="66"/>
      <point x="120" y="83"/>
      <point x="120" y="310" type="curve" smooth="yes"/>
      <point x="120" y="378" type="line" smooth="yes"/>
      <point x="120" y="605"/>
      <point x="136" y="622"/>
      <point x="355" y="622" type="curve" smooth="yes"/>
      <point x="423" y="622"/>
      <point x="489" y="618"/>
      <point x="541" y="612" type="curve"/>
      <point x="541" y="681" type="line"/>
      <point x="499" y="690"/>
      <point x="423" y="696"/>
      <point x="360" y="696" type="curve" smooth="yes"/>
      <point x="87" y="696"/>
      <point x="38" y="644"/>
      <point x="38" y="349" type="curve" smooth="yes"/>
      <point x="38" y="339" type="line" smooth="yes"/>
      <point x="38" y="44"/>
      <point x="87" y="-8"/>
    </contour>
  </outline>
</glyph>
<glyph name="H" format="2">
  <advance width="614"/>
  <unicode hex="0048"/>
  <anchor x="307" y="0" name="bottom"/>
  <anchor x="307" y="550" name="center"/>
  <anchor x="307" y="688" name="top"/>
  <anchor x="-30" y="688" name="topleft"/>
  <outline>
    <contour>
      <point x="50" y="0" type="line"/>
      <point x="132" y="0" type="line"/>
      <point x="132" y="347" type="line"/>
      <point x="95" y="310" type="line"/>
      <point x="519" y="310" type="line"/>
      <point x="482" y="347" type="line"/>
      <point x="482" y="0" type="line"/>
      <point x="564" y="0" type="line"/>
      <point x="564" y="688" type="line"/>
      <point x="482" y="688" type="line"/>
      <point x="482" y="347" type="line"/>
      <point x="519" y="384" type="line"/>
      <point x="95" y="384" type="line"/>
      <point x="132" y="347" type="line"/>
      <point x="132" y="688" type="line"/>
      <point x="50" y="688" type="line"/>
    </contour>
  </outline>
</glyph>
<glyph name="I" format="2">
  <advance width="182"/>
  <unicode hex="0049"/>
  <anchor x="91" y="0" name="bottom"/>
  <anchor x="204" y="10" name="ogonek"/>
  <anchor x="91" y="688" name="top"/>
  <anchor x="-30" y="688" name="topleft"/>
  <outline>
    <contour>
      <point x="50" y="0" type="line"/>
      <point x="132" y="0" type="line"/>
      <point x="132" y="688" type="line"/>
      <point x="50" y="688" type="line"/>
    </contour>
  </outline>
</glyph>
<glyph name="J" format="2">
  <advance width="267"/>
  <unicode hex="004A"/>
  <anchor x="134" y="0" name="bottom"/>
  <anchor x="134" y="688" name="top"/>
  <outline>
    <contour>
      <point x="217" y="688" type="line"/>
      <point x="135" y="688" type="line"/>
      <point x="135" y="141" type="line" smooth="yes"/>
      <point x="135" y="78"/>
      <point x="114" y="66"/>
      <point x="3" y="66" type="curve"/>
      <point x="3" y="-4" type="line"/>
      <point x="170" y="-4"/>
      <point x="217" y="29"/>
      <point x="217" y="148" type="curve" smooth="yes"/>
    </contour>
  </outline>
</glyph>
<glyph name="K" format="2">
  <advance width="592"/>
  <unicode hex="004B"/>
  <anchor x="282" y="0" name="bottom"/>
  <anchor x="282" y="688" name="top"/>
  <outline>
    <contour>
      <point x="127" y="313" type="line"/>
      <point x="261" y="313" type="line"/>
      <point x="488" y="0" type="line"/>
      <point x="587" y="0" type="line"/>
      <point x="330" y="350" type="line"/>
      <point x="577" y="688" type="line"/>
      <point x="478" y="688" type="line"/>
      <point x="261" y="387" type="line"/>
      <point x="127" y="387" type="line"/>
    </contour>
    <contour>
      <point x="50" y="0" type="line"/>
      <point x="132" y="0" type="line"/>
      <point x="132" y="688" type="line"/>
      <point x="50" y="688" type="line"/>
    </contour>
  </outline>
</glyph>
<glyph name="L" format="2">
  <advance width="483"/>
  <unicode hex="004C"/>
  <anchor x="222" y="0" name="bottom"/>
  <anchor x="222" y="344" name="center"/>
  <anchor x="222" y="688" name="top"/>
  <anchor x="473" y="688" name="topright"/>
  <outline>
    <contour>
      <point x="50" y="0" type="line"/>
      <point x="473" y="0" type="line"/>
      <point x="473" y="74" type="line"/>
      <point x="95" y="74" type="line"/>
      <point x="132" y="37" type="line"/>
      <point x="132" y="688" type="line"/>
      <point x="50" y="688" type="line"/>
    </contour>
  </outline>
</glyph>
<glyph name="M" format="2">
  <advance width="716"/>
  <unicode hex="004D"/>
  <outline>
    <contour>
      <point x="50" y="0" type="line"/>
      <point x="132" y="0" type="line"/>
      <point x="132" y="585" type="line"/>
      <point x="311" y="0" type="line"/>
      <point x="405" y="0" type="line"/>
      <point x="584" y="585" type="line"/>
      <point x="584" y="0" type="line"/>
      <point x="666" y="0" type="line"/>
      <point x="666" y="688" type="line"/>
      <point x="535" y="688" type="line"/>
      <point x="358" y="105" type="line"/>
      <point x="181" y="688" type="line"/>
      <point x="50" y="688" type="line"/>
    </contour>
  </outline>
</glyph>
<glyph name="N" format="2">
  <advance width="614"/>
  <unicode hex="004E"/>
  <anchor x="307" y="0" name="bottom"/>
  <anchor x="307" y="688" name="top"/>
  <outline>
    <contour>
      <point x="50" y="0" type="line"/>
      <point x="132" y="0" type="line"/>
      <point x="132" y="542" type="line"/>
      <point x="476" y="0" type="line"/>
      <point x="564" y="0" type="line"/>
      <point x="564" y="688" type="line"/>
      <point x="482" y="688" type="line"/>
      <point x="482" y="146" type="line"/>
      <point x="138" y="688" type="line"/>
      <point x="50" y="688" type="line"/>
    </contour>
  </outline>
</glyph>
<glyph name="O" format="2">
  <advance width="632"/>
  <unicode hex="004F"/>
  <anchor x="316" y="-2" name="bottom"/>
  <anchor x="316" y="344" name="center"/>
  <anchor x="599" y="10" name="ogonek"/>
  <anchor x="316" y="688" name="top"/>
  <anchor x="-18" y="688" name="topleft"/>
  <anchor x="650" y="688" name="topright"/>
  <outline>
    <contour>
      <point x="316" y="-8" type="curve" smooth="yes"/>
      <point x="552" y="-8"/>
      <point x="594" y="44"/>
      <point x="594" y="339" type="curve" smooth="yes"/>
      <point x="594" y="349" type="line" smooth="yes"/>
      <point x="594" y="644"/>
      <point x="552" y="696"/>
      <point x="316" y="696" type="curve" smooth="yes"/>
      <point x="80" y="696"/>
      <point x="38" y="644"/>
      <point x="38" y="349" type="curve" smooth="yes"/>
      <point x="38" y="339" type="line" smooth="yes"/>
      <point x="38" y="44"/>
      <point x="80" y="-8"/>
    </contour>
    <contour>
      <point x="316" y="66" type="curve" smooth="yes"/>
      <point x="133" y="66"/>
      <point x="120" y="83"/>
      <point x="120" y="310" type="curve" smooth="yes"/>
      <point x="120" y="378" type="line" smooth="yes"/>
      <point x="120" y="605"/>
      <point x="133" y="622"/>
      <point x="316" y="622" type="curve" smooth="yes"/>
      <point x="499" y="622"/>
      <point x="512" y="605"/>
      <point x="512" y="378" type="curve" smooth="yes"/>
      <point x="512" y="310" type="line" smooth="yes"/>
      <point x="512" y="83"/>
      <point x="499" y="66"/>
    </contour>
  </outline>
</glyph>
<glyph name="P" format="2">
  <advance width="520"/>
  <unicode hex="0050"/>
  <anchor x="243" y="0" name="bottom"/>
  <anchor x="243" y="688" name="top"/>
  <outline>
    <contour>
      <point x="50" y="0" type="line"/>
      <point x="132" y="0" type="line"/>
      <point x="132" y="645" type="line"/>
      <point x="95" y="614" type="line"/>
      <point x="257" y="614" type="line" smooth="yes"/>
      <point x="413" y="614"/>
      <point x="423" y="605"/>
      <point x="423" y="485" type="curve" smooth="yes"/>
      <point x="423" y="450" type="line" smooth="yes"/>
      <point x="423" y="330"/>
      <point x="413" y="321"/>
      <point x="257" y="321" type="curve" smooth="yes"/>
      <point x="116" y="321" type="line"/>
      <point x="116" y="247" type="line"/>
      <point x="257" y="247" type="line" smooth="yes"/>
      <point x="468" y="247"/>
      <point x="505" y="280"/>
      <point x="505" y="464" type="curve" smooth="yes"/>
      <point x="505" y="471" type="line" smooth="yes"/>
      <point x="505" y="655"/>
      <point x="468" y="688"/>
      <point x="257" y="688" type="curve" smooth="yes"/>
      <point x="50" y="688" type="line"/>
    </contour>
  </outline>
</glyph>
<glyph name="R" format="2">
  <advance width="558"/>
  <unicode hex="0052"/>
  <anchor x="270" y="0" name="bottom"/>
  <anchor x="270" y="688" name="top"/>
  <outline>
    <contour>
      <point x="50" y="0" type="line"/>
      <point x="132" y="0" type="line"/>
      <point x="132" y="645" type="line"/>
      <point x="95" y="614" type="line"/>
      <point x="267" y="614" type="line" smooth="yes"/>
      <point x="428" y="614"/>
      <point x="433" y="610"/>
      <point x="433" y="494" type="curve" smooth="yes"/>
      <point x="433" y="461" type="line" smooth="yes"/>
      <point x="433" y="345"/>
      <point x="428" y="341"/>
      <point x="267" y="341" type="curve" smooth="yes"/>
      <point x="116" y="341" type="line"/>
      <point x="116" y="267" type="line"/>
      <point x="267" y="267" type="line" smooth="yes"/>
      <point x="477" y="267"/>
      <point x="515" y="298"/>
      <point x="515" y="474" type="curve" smooth="yes"/>
      <point x="515" y="481" type="line" smooth="yes"/>
      <point x="515" y="657"/>
      <point x="477" y="688"/>
      <point x="267" y="688" type="curve" smooth="yes"/>
      <point x="50" y="688" type="line"/>
    </contour>
    <contour>
      <point x="436" y="0" type="line"/>
      <point x="525" y="0" type="line"/>
      <point x="408" y="289" type="line"/>
      <point x="322" y="289" type="line"/>
    </contour>
  </outline>
</glyph>
<glyph name="S" format="2">
  <advance width="564"/>
  <unicode hex="0053"/>
  <anchor x="282" y="0" name="bottom"/>
  <anchor x="282" y="688" name="top"/>
  <outline>
    <contour>
      <point x="287" y="-8" type="curve" smooth="yes"/>
      <point x="472" y="-8"/>
      <point x="529" y="41"/>
      <point x="529" y="198" type="curve" smooth="yes"/>
      <point x="529" y="319"/>
      <point x="493" y="363"/>
      <point x="382" y="375" type="curve" smooth="yes"/>
      <point x="200" y="395" type="line" smooth="yes"/>
      <point x="130" y="404"/>
      <point x="117" y="420"/>
      <point x="117" y="494" type="curve" smooth="yes"/>
      <point x="117" y="601"/>
      <point x="142" y="622"/>
      <point x="273" y="622" type="curve" smooth="yes"/>
      <point x="346" y="622"/>
      <point x="436" y="615"/>
      <point x="501" y="605" type="curve"/>
      <point x="501" y="677" type="line"/>
      <point x="422" y="688"/>
      <point x="333" y="696"/>
      <point x="277" y="696" type="curve" smooth="yes"/>
      <point x="94" y="696"/>
      <point x="35" y="648"/>
      <point x="35" y="496" type="curve" smooth="yes"/>
      <point x="35" y="377"/>
      <point x="74" y="330"/>
      <point x="180" y="319" type="curve" smooth="yes"/>
      <point x="362" y="299" type="line" smooth="yes"/>
      <point x="437" y="289"/>
      <point x="447" y="278"/>
      <point x="447" y="198" type="curve" smooth="yes"/>
      <point x="447" y="88"/>
      <point x="420" y="66"/>
      <point x="289" y="66" type="curve" smooth="yes"/>
      <point x="210" y="66"/>
      <point x="112" y="73"/>
      <point x="41" y="83" type="curve"/>
      <point x="41" y="11" type="line"/>
      <point x="129" y="-1"/>
      <point x="226" y="-8"/>
    </contour>
  </outline>
</glyph>
<glyph name="T" format="2">
  <advance width="512"/>
  <unicode hex="0054"/>
  <anchor x="251" y="0" name="bottom"/>
  <anchor x="251" y="344" name="center"/>
  <anchor x="251" y="688" name="top"/>
  <outline>
    <contour>
      <point x="215" y="0" type="line"/>
      <point x="297" y="0" type="line"/>
      <point x="297" y="649" type="line"/>
      <point x="262" y="612" type="line"/>
      <point x="507" y="612" type="line"/>
      <point x="507" y="688" type="line"/>
      <point x="5" y="688" type="line"/>
      <point x="5" y="612" type="line"/>
      <point x="250" y="612" type="line"/>
      <point x="215" y="649" type="line"/>
    </contour>
  </outline>
</glyph>
<glyph name="U" format="2">
  <advance width="610"/>
  <unicode hex="0055"/>
  <anchor x="305" y="0" name="bottom"/>
  <anchor x="587" y="10" name="ogonek"/>
  <anchor x="305" y="688" name="top"/>
  <anchor x="637" y="688" name="topright"/>
  <outline>
    <contour>
      <point x="305" y="-8" type="curve" smooth="yes"/>
      <point x="523" y="-8"/>
      <point x="562" y="50"/>
      <point x="562" y="326" type="curve" smooth="yes"/>
      <point x="562" y="688" type="line"/>
      <point x="480" y="688" type="line"/>
      <point x="480" y="297" type="line" smooth="yes"/>
      <point x="480" y="91"/>
      <point x="468" y="68"/>
      <point x="305" y="68" type="curve" smooth="yes"/>
      <point x="142" y="68"/>
      <point x="130" y="91"/>
      <point x="130" y="297" type="curve" smooth="yes"/>
      <point x="130" y="688" type="line"/>
      <point x="48" y="688" type="line"/>
      <point x="48" y="326" type="line" smooth="yes"/>
      <point x="48" y="51"/>
      <point x="87" y="-8"/>
    </contour>
  </outline>
</glyph>
<glyph name="V" format="2">
  <advance width="568"/>
  <unicode hex="0056"/>
  <outline>
    <contour>
      <point x="225" y="0" type="line"/>
      <point x="343" y="0" type="line"/>
      <point x="563" y="688" type="line"/>
      <point x="477" y="688" type="line"/>
      <point x="284" y="76" type="line"/>
      <point x="91" y="688" type="line"/>
      <point x="5" y="688" type="line"/>
    </contour>
  </outline>
</glyph>
<glyph name="W" format="2">
  <advance width="722"/>
  <unicode hex="0057"/>
  <outline>
    <contour>
      <point x="134" y="0" type="line"/>
      <point x="257" y="0" type="line"/>
      <point x="361" y="583" type="line"/>
      <point x="465" y="0" type="line"/>
      <point x="588" y="0" type="line"/>
      <point x="717" y="688" type="line"/>
      <point x="635" y="688" type="line"/>
      <point x="526" y="103" type="line"/>
      <point x="419" y="688" type="line"/>
      <point x="303" y="688" type="line"/>
      <point x="196" y="103" type="line"/>
      <point x="87" y="688" type="line"/>
      <point x="5" y="688" type="line"/>
    </contour>
  </outline>
</glyph>
<glyph name="X" format="2">
  <advance width="574"/>
  <unicode hex="0058"/>
  <anchor x="284" y="0" name="bottom"/>
  <anchor x="284" y="510" name="top"/>
  <outline>
    <contour>
      <point x="466" y="0" type="line"/>
      <point x="564" y="0" type="line"/>
      <point x="118" y="688" type="line"/>
      <point x="20" y="688" type="line"/>
    </contour>
    <contour>
      <point x="10" y="0" type="line"/>
      <point x="108" y="0" type="line"/>
      <point x="554" y="688" type="line"/>
      <point x="456" y="688" type="line"/>
    </contour>
  </outline>
</glyph>
<glyph name="Y" format="2">
  <advance width="546"/>
  <unicode hex="0059"/>
  <anchor x="274" y="0" name="bottom"/>
  <anchor x="274" y="688" name="top"/>
  <anchor x="-19" y="688" name="topleft"/>
  <outline>
    <contour>
      <point x="232" y="0" type="line"/>
      <point x="314" y="0" type="line"/>
      <point x="314" y="300" type="line"/>
      <point x="295" y="231" type="line"/>
      <point x="541" y="688" type="line"/>
      <point x="448" y="688" type="line"/>
      <point x="273" y="350" type="line"/>
      <point x="98" y="688" type="line"/>
      <point x="5" y="688" type="line"/>
      <point x="251" y="231" type="line"/>
      <point x="232" y="300" type="line"/>
    </contour>
  </outline>
</glyph>
<glyph name="Z" format="2">
  <advance width="543"/>
  <unicode hex="005A"/>
  <anchor x="267" y="0" name="bottom"/>
  <anchor x="267" y="344" name="center"/>
  <anchor x="267" y="688" name="top"/>
  <outline>
    <contour>
      <point x="25" y="0" type="line"/>
      <point x="518" y="0" type="line"/>
      <point x="518" y="74" type="line"/>
      <point x="133" y="74" type="line"/>
      <point x="512" y="622" type="line"/>
      <point x="512" y="688" type="line"/>
      <point x="36" y="688" type="line"/>
      <point x="36" y="614" type="line"/>
      <point x="404" y="614" type="line"/>
      <point x="25" y="66" type="line"/>
    </contour>
  </outline>
</glyph>
<glyph name="bracketright" format="2">
  <advance width="336.17391"/>
  <unicode hex="005D"/>
  <outline>
    <contour>
      <point x="41.63" y="-150" type="line"/>
      <point x="236.391" y="-150" type="line"/>
      <point x="236.391" y="743" type="line"/>
      <point x="41.63" y="743" type="line"/>
      <point x="41.63" y="683.37" type="line"/>
      <point x="160.63" y="679.37" type="line"/>
      <point x="160.63" y="-86.37" type="line"/>
      <point x="41.63" y="-90.37" type="line"/>
    </contour>
  </outline>
</glyph>
<glyph name="c" format="2">
  <advance width="416"/>
  <unicode hex="0063"/>
  <anchor x="201" y="0" name="bottom"/>
  <anchor x="201" y="510" name="top"/>
  <outline>
    <contour>
      <point x="254" y="-8" type="curve" smooth="yes"/>
      <point x="304" y="-8"/>
      <point x="361" y="-2"/>
      <point x="395" y="7" type="curve"/>
      <point x="395" y="75" type="line"/>
      <point x="358" y="67"/>
      <point x="297" y="62"/>
      <point x="249" y="62" type="curve" smooth="yes"/>
      <point x="126" y="62"/>
      <point x="117" y="74"/>
      <point x="117" y="231" type="curve" smooth="yes"/>
      <point x="117" y="279" type="line" smooth="yes"/>
      <point x="117" y="436"/>
      <point x="126" y="448"/>
      <point x="249" y="448" type="curve" smooth="yes"/>
      <point x="295" y="448"/>
      <point x="354" y="443"/>
      <point x="390" y="435" type="curve"/>
      <point x="390" y="503" type="line"/>
      <point x="357" y="512"/>
      <point x="302" y="518"/>
      <point x="254" y="518" type="curve" smooth="yes"/>
      <point x="68" y="518"/>
      <point x="35" y="479"/>
      <point x="35" y="259" type="curve" smooth="yes"/>
      <point x="35" y="251" type="line" smooth="yes"/>
      <point x="35" y="31"/>
      <point x="68" y="-8"/>
    </contour>
  </outline>
</glyph>
<glyph name="d" format="2">
  <advance width="534"/>
  <unicode hex="0064"/>
  <anchor x="310" y="0" name="bottom"/>
  <anchor x="464" y="594" name="center"/>
  <anchor x="310" y="510" name="top"/>
  <anchor x="519" y="743" name="topright"/>
  <outline>
    <contour>
      <point x="219" y="-8" type="curve" smooth="yes"/>
      <point x="317" y="-8"/>
      <point x="373" y="17"/>
      <point x="398" y="73" type="curve"/>
      <point x="402" y="73" type="line"/>
      <point x="411" y="0" type="line"/>
      <point x="484" y="0" type="line"/>
      <point x="484" y="743" type="line"/>
      <point x="402" y="743" type="line"/>
      <point x="402" y="437" type="line"/>
      <point x="398" y="437" type="line"/>
      <point x="373" y="493"/>
      <point x="317" y="518"/>
      <point x="219" y="518" type="curve" smooth="yes"/>
      <point x="62" y="518"/>
      <point x="35" y="479"/>
      <point x="35" y="259" type="curve" smooth="yes"/>
      <point x="35" y="251" type="line" smooth="yes"/>
      <point x="35" y="31"/>
      <point x="62" y="-8"/>
    </contour>
    <contour>
      <point x="239" y="62" type="curve" smooth="yes"/>
      <point x="135" y="62"/>
      <point x="117" y="83"/>
      <point x="117" y="203" type="curve" smooth="yes"/>
      <point x="117" y="307" type="line" smooth="yes"/>
      <point x="117" y="427"/>
      <point x="135" y="448"/>
      <point x="239" y="448" type="curve" smooth="yes"/>
      <point x="373" y="448"/>
      <point x="402" y="415"/>
      <point x="402" y="266" type="curve" smooth="yes"/>
      <point x="402" y="244" type="line" smooth="yes"/>
      <point x="402" y="95"/>
      <point x="373" y="62"/>
    </contour>
  </outline>
</glyph>
<glyph name="e" format="2">
  <advance width="500"/>
  <unicode hex="0065"/>
  <anchor x="248" y="0" name="bottom"/>
  <anchor x="474" y="10" name="ogonek"/>
  <anchor x="248" y="510" name="top"/>
  <outline>
    <contour>
      <point x="254" y="-8" type="curve" smooth="yes"/>
      <point x="325" y="-8"/>
      <point x="409" y="0"/>
      <point x="455" y="12" type="curve"/>
      <point x="455" y="80" type="line"/>
      <point x="401" y="69"/>
      <point x="318" y="62"/>
      <point x="254" y="62" type="curve" smooth="yes"/>
      <point x="126" y="62"/>
      <point x="117" y="74"/>
      <point x="117" y="231" type="curve" smooth="yes"/>
      <point x="117" y="279" type="line" smooth="yes"/>
      <point x="117" y="436"/>
      <point x="126" y="448"/>
      <point x="254" y="448" type="curve" smooth="yes"/>
      <point x="377" y="448"/>
      <point x="386" y="436"/>
      <point x="386" y="279" type="curve" smooth="yes"/>
      <point x="386" y="251" type="line"/>
      <point x="424" y="286" type="line"/>
      <point x="75" y="286" type="line"/>
      <point x="75" y="216" type="line"/>
      <point x="468" y="216" type="line"/>
      <point x="468" y="259" type="line" smooth="yes"/>
      <point x="468" y="479"/>
      <point x="436" y="518"/>
      <point x="254" y="518" type="curve" smooth="yes"/>
      <point x="68" y="518"/>
      <point x="35" y="479"/>
      <point x="35" y="259" type="curve" smooth="yes"/>
      <point x="35" y="251" type="line" smooth="yes"/>
      <point x="35" y="31"/>
      <point x="68" y="-8"/>
    </contour>
  </outline>
</glyph>
<glyph name="f" format="2">
  <advance width="330"/>
  <unicode hex="0066"/>
  <anchor x="170" y="0" name="bottom"/>
  <anchor x="170" y="743" name="top"/>
  <outline>
    <contour>
      <point x="113" y="0" type="line"/>
      <point x="195" y="0" type="line"/>
      <point x="195" y="598" type="line" smooth="yes"/>
      <point x="195" y="661"/>
      <point x="216" y="673"/>
      <point x="327" y="673" type="curve"/>
      <point x="327" y="743" type="line"/>
      <point x="160" y="743"/>
      <point x="113" y="710"/>
      <point x="113" y="591" type="curve" smooth="yes"/>
    </contour>
    <contour>
      <point x="10" y="440" type="line"/>
      <point x="130" y="440" type="line"/>
      <point x="130" y="510" type="line"/>
      <point x="10" y="510" type="line"/>
    </contour>
    <contour>
      <point x="179" y="440" type="line"/>
      <point x="327" y="440" type="line"/>
      <point x="327" y="510" type="line"/>
      <point x="179" y="510" type="line"/>
    </contour>
  </outline>
</glyph>
<glyph name="g" format="2">
  <advance width="534"/>
  <unicode hex="0067"/>
  <anchor x="266" y="-200" name="bottom"/>
  <anchor x="429" y="-84" name="center"/>
  <anchor x="266" y="510" name="top"/>
  <outline>
    <contour>
      <point x="269" y="-208" type="curve" smooth="yes"/>
      <point x="452" y="-208"/>
      <point x="484" y="-169"/>
      <point x="484" y="51" type="curve" smooth="yes"/>
      <point x="484" y="510" type="line"/>
      <point x="411" y="510" type="line"/>
      <point x="402" y="437" type="line"/>
      <point x="398" y="437" type="line"/>
      <point x="373" y="493"/>
      <point x="317" y="518"/>
      <point x="219" y="518" type="curve" smooth="yes"/>
      <point x="62" y="518"/>
      <point x="35" y="479"/>
      <point x="35" y="259" type="curve" smooth="yes"/>
      <point x="35" y="251" type="line" smooth="yes"/>
      <point x="35" y="31"/>
      <point x="62" y="-8"/>
      <point x="219" y="-8" type="curve" smooth="yes"/>
      <point x="317" y="-8"/>
      <point x="373" y="17"/>
      <point x="398" y="73" type="curve"/>
      <point x="402" y="73" type="line"/>
      <point x="402" y="31" type="line" smooth="yes"/>
      <point x="402" y="-126"/>
      <point x="393" y="-138"/>
      <point x="269" y="-138" type="curve" smooth="yes"/>
      <point x="198" y="-138"/>
      <point x="139" y="-134"/>
      <point x="82" y="-125" type="curve"/>
      <point x="82" y="-193" type="line"/>
      <point x="151" y="-203"/>
      <point x="211" y="-208"/>
    </contour>
    <contour>
      <point x="239" y="62" type="curve" smooth="yes"/>
      <point x="135" y="62"/>
      <point x="117" y="83"/>
      <point x="117" y="203" type="curve" smooth="yes"/>
      <point x="117" y="307" type="line" smooth="yes"/>
      <point x="117" y="427"/>
      <point x="135" y="448"/>
      <point x="239" y="448" type="curve" smooth="yes"/>
      <point x="373" y="448"/>
      <point x="402" y="415"/>
      <point x="402" y="266" type="curve" smooth="yes"/>
      <point x="402" y="244" type="line" smooth="yes"/>
      <point x="402" y="95"/>
      <point x="373" y="62"/>
    </contour>
  </outline>
</glyph>
<glyph name="h" format="2">
  <advance width="526"/>
  <unicode hex="0068"/>
  <anchor x="262" y="0" name="bottom"/>
  <anchor x="262" y="510" name="top"/>
  <outline>
    <contour>
      <point x="50" y="0" type="line"/>
      <point x="132" y="0" type="line"/>
      <point x="132" y="269" type="line" smooth="yes"/>
      <point x="132" y="415"/>
      <point x="159" y="448"/>
      <point x="283" y="448" type="curve" smooth="yes"/>
      <point x="379" y="448"/>
      <point x="396" y="427"/>
      <point x="396" y="307" type="curve" smooth="yes"/>
      <point x="396" y="0" type="line"/>
      <point x="478" y="0" type="line"/>
      <point x="478" y="319" type="line" smooth="yes"/>
      <point x="478" y="463"/>
      <point x="430" y="518"/>
      <point x="305" y="518" type="curve" smooth="yes"/>
      <point x="209" y="518"/>
      <point x="156" y="493"/>
      <point x="132" y="437" type="curve"/>
      <point x="132" y="743" type="line"/>
      <point x="50" y="743" type="line"/>
    </contour>
  </outline>
</glyph>
<glyph name="k" format="2">
  <advance width="506"/>
  <unicode hex="006B"/>
  <anchor x="241" y="0" name="bottom"/>
  <anchor x="241" y="510" name="top"/>
  <outline>
    <contour>
      <point x="132" y="225" type="line"/>
      <point x="256" y="225" type="line"/>
      <point x="402" y="0" type="line"/>
      <point x="498" y="0" type="line"/>
      <point x="329" y="260" type="line"/>
      <point x="495" y="510" type="line"/>
      <point x="399" y="510" type="line"/>
      <point x="256" y="295" type="line"/>
      <point x="132" y="295" type="line"/>
    </contour>
    <contour>
      <point x="50" y="0" type="line"/>
      <point x="132" y="0" type="line"/>
      <point x="132" y="743" type="line"/>
      <point x="50" y="743" type="line"/>
    </contour>
  </outline>
</glyph>
<glyph name="l" format="2">
  <advance width="182"/>
  <unicode hex="006C"/>
  <anchor x="91" y="0" name="bottom"/>
  <anchor x="91" y="372" name="center"/>
  <anchor x="91" y="743" name="top"/>
  <anchor x="132" y="743" name="topright"/>
  <outline>
    <contour>
      <point x="50" y="0" type="line"/>
      <point x="132" y="0" type="line"/>
      <point x="132" y="743" type="line"/>
      <point x="50" y="743" type="line"/>
    </contour>
  </outline>
</glyph>
<glyph name="m" format="2">
  <advance width="872"/>
  <unicode hex="006D"/>
  <anchor x="262" y="0" name="bottom"/>
  <anchor x="262" y="510" name="top"/>
  <outline>
    <contour>
      <point x="50" y="0" type="line"/>
      <point x="132" y="0" type="line"/>
      <point x="132" y="266" type="line" smooth="yes"/>
      <point x="132" y="415"/>
      <point x="159" y="448"/>
      <point x="283" y="448" type="curve" smooth="yes"/>
      <point x="379" y="448"/>
      <point x="396" y="427"/>
      <point x="396" y="307" type="curve" smooth="yes"/>
      <point x="396" y="0" type="line"/>
      <point x="478" y="0" type="line"/>
      <point x="478" y="266" type="line" smooth="yes"/>
      <point x="478" y="415"/>
      <point x="505" y="448"/>
      <point x="629" y="448" type="curve" smooth="yes"/>
      <point x="725" y="448"/>
      <point x="742" y="427"/>
      <point x="742" y="307" type="curve" smooth="yes"/>
      <point x="742" y="0" type="line"/>
      <point x="824" y="0" type="line"/>
      <point x="824" y="319" type="line" smooth="yes"/>
      <point x="824" y="472"/>
      <point x="784" y="518"/>
      <point x="651" y="518" type="curve" smooth="yes"/>
      <point x="555" y="518"/>
      <point x="499" y="493"/>
      <point x="469" y="437" type="curve"/>
      <point x="465" y="437" type="line"/>
      <point x="443" y="499"/>
      <point x="395" y="518"/>
      <point x="305" y="518" type="curve" smooth="yes"/>
      <point x="210" y="518"/>
      <point x="157" y="493"/>
      <point x="133" y="437" type="curve"/>
      <point x="129" y="437" type="line"/>
      <point x="120" y="510" type="line"/>
      <point x="50" y="510" type="line"/>
    </contour>
  </outline>
</glyph>
<glyph name="n" format="2">
  <advance width="526"/>
  <unicode hex="006E"/>
  <anchor x="262" y="0" name="bottom"/>
  <anchor x="262" y="510" name="top"/>
  <outline>
    <contour>
      <point x="50" y="0" type="line"/>
      <point x="132" y="0" type="line"/>
      <point x="132" y="269" type="line" smooth="yes"/>
      <point x="132" y="415"/>
      <point x="159" y="448"/>
      <point x="283" y="448" type="curve" smooth="yes"/>
      <point x="379" y="448"/>
      <point x="396" y="427"/>
      <point x="396" y="307" type="curve" smooth="yes"/>
      <point x="396" y="0" type="line"/>
      <point x="478" y="0" type="line"/>
      <point x="478" y="319" type="line" smooth="yes"/>
      <point x="478" y="463"/>
      <point x="430" y="518"/>
      <point x="305" y="518" type="curve" smooth="yes"/>
      <point x="210" y="518"/>
      <point x="157" y="493"/>
      <point x="133" y="437" type="curve"/>
      <point x="129" y="437" type="line"/>
      <point x="120" y="510" type="line"/>
      <point x="50" y="510" type="line"/>
    </contour>
  </outline>
</glyph>
<glyph name="o" format="2">
  <advance width="518"/>
  <unicode hex="006F"/>
  <anchor x="259" y="0" name="bottom"/>
  <anchor x="259" y="255" name="center"/>
  <anchor x="494" y="10" name="ogonek"/>
  <anchor x="259" y="510" name="top"/>
  <anchor x="533" y="510" name="topright"/>
  <outline>
    <contour>
      <point x="259" y="-8" type="curve" smooth="yes"/>
      <point x="449" y="-8"/>
      <point x="483" y="31"/>
      <point x="483" y="251" type="curve" smooth="yes"/>
      <point x="483" y="259" type="line" smooth="yes"/>
      <point x="483" y="479"/>
      <point x="449" y="518"/>
      <point x="259" y="518" type="curve" smooth="yes"/>
      <point x="68" y="518"/>
      <point x="35" y="471"/>
      <point x="35" y="259" type="curve" smooth="yes"/>
      <point x="35" y="251" type="line" smooth="yes"/>
      <point x="35" y="31"/>
      <point x="69" y="-8"/>
    </contour>
    <contour>
      <point x="259" y="62" type="curve" smooth="yes"/>
      <point x="127" y="62"/>
      <point x="117" y="73"/>
      <point x="117" y="231" type="curve" smooth="yes"/>
      <point x="117" y="279" type="line" smooth="yes"/>
      <point x="117" y="437"/>
      <point x="127" y="448"/>
      <point x="259" y="448" type="curve" smooth="yes"/>
      <point x="391" y="448"/>
      <point x="401" y="437"/>
      <point x="401" y="279" type="curve" smooth="yes"/>
      <point x="401" y="231" type="line" smooth="yes"/>
      <point x="401" y="73"/>
      <point x="391" y="62"/>
    </contour>
  </outline>
</glyph>
<glyph name="p" format="2">
  <advance width="534"/>
  <unicode hex="0070"/>
  <anchor x="260" y="0" name="bottom"/>
  <anchor x="105" y="-84" name="center"/>
  <anchor x="260" y="510" name="top"/>
  <outline>
    <contour>
      <point x="50" y="-233" type="line"/>
      <point x="132" y="-233" type="line"/>
      <point x="132" y="73" type="line"/>
      <point x="136" y="73" type="line"/>
      <point x="161" y="17"/>
      <point x="217" y="-8"/>
      <point x="315" y="-8" type="curve" smooth="yes"/>
      <point x="472" y="-8"/>
      <point x="499" y="31"/>
      <point x="499" y="251" type="curve" smooth="yes"/>
      <point x="499" y="259" type="line" smooth="yes"/>
      <point x="499" y="479"/>
      <point x="472" y="518"/>
      <point x="315" y="518" type="curve" smooth="yes"/>
      <point x="217" y="518"/>
      <point x="161" y="493"/>
      <point x="136" y="437" type="curve"/>
      <point x="132" y="437" type="line"/>
      <point x="123" y="510" type="line"/>
      <point x="50" y="510" type="line"/>
    </contour>
    <contour>
      <point x="295" y="62" type="curve" smooth="yes"/>
      <point x="161" y="62"/>
      <point x="132" y="95"/>
      <point x="132" y="244" type="curve" smooth="yes"/>
      <point x="132" y="266" type="line" smooth="yes"/>
      <point x="132" y="415"/>
      <point x="161" y="448"/>
      <point x="295" y="448" type="curve" smooth="yes"/>
      <point x="399" y="448"/>
      <point x="417" y="427"/>
      <point x="417" y="307" type="curve" smooth="yes"/>
      <point x="417" y="203" type="line" smooth="yes"/>
      <point x="417" y="83"/>
      <point x="399" y="62"/>
    </contour>
  </outline>
</glyph>
<glyph name="r" format="2">
  <advance width="334"/>
  <unicode hex="0072"/>
  <anchor x="150" y="0" name="bottom"/>
  <anchor x="150" y="510" name="top"/>
  <outline>
    <contour>
      <point x="50" y="0" type="line"/>
      <point x="132" y="0" type="line"/>
      <point x="132" y="266" type="line" smooth="yes"/>
      <point x="132" y="415"/>
      <point x="162" y="448"/>
      <point x="298" y="448" type="curve" smooth="yes"/>
      <point x="320" y="448" type="line"/>
      <point x="320" y="518" type="line"/>
      <point x="216" y="518"/>
      <point x="160" y="493"/>
      <point x="133" y="437" type="curve"/>
      <point x="129" y="437" type="line"/>
      <point x="120" y="510" type="line"/>
      <point x="50" y="510" type="line"/>
    </contour>
  </outline>
</glyph>
<glyph name="s" format="2">
  <advance width="437"/>
  <unicode hex="0073"/>
  <anchor x="219" y="0" name="bottom"/>
  <anchor x="219" y="510" name="top"/>
  <outline>
    <contour>
      <point x="217" y="-8" type="curve" smooth="yes"/>
      <point x="360" y="-8"/>
      <point x="404" y="28"/>
      <point x="404" y="146" type="curve" smooth="yes"/>
      <point x="404" y="241"/>
      <point x="377" y="275"/>
      <point x="290" y="286" type="curve" smooth="yes"/>
      <point x="174" y="300" type="line" smooth="yes"/>
      <point x="124" y="306"/>
      <point x="115" y="316"/>
      <point x="115" y="367" type="curve" smooth="yes"/>
      <point x="115" y="435"/>
      <point x="133" y="448"/>
      <point x="228" y="448" type="curve" smooth="yes"/>
      <point x="276" y="448"/>
      <point x="337" y="443"/>
      <point x="382" y="435" type="curve"/>
      <point x="382" y="503" type="line"/>
      <point x="322" y="513"/>
      <point x="259" y="518"/>
      <point x="220" y="518" type="curve" smooth="yes"/>
      <point x="78" y="518"/>
      <point x="33" y="482"/>
      <point x="33" y="368" type="curve" smooth="yes"/>
      <point x="33" y="276"/>
      <point x="62" y="239"/>
      <point x="145" y="229" type="curve" smooth="yes"/>
      <point x="261" y="215" type="line" smooth="yes"/>
      <point x="316" y="208"/>
      <point x="322" y="200"/>
      <point x="322" y="146" type="curve" smooth="yes"/>
      <point x="322" y="76"/>
      <point x="303" y="62"/>
      <point x="208" y="62" type="curve" smooth="yes"/>
      <point x="155" y="62"/>
      <point x="88" y="67"/>
      <point x="38" y="75" type="curve"/>
      <point x="38" y="7" type="line"/>
      <point x="104" y="-3"/>
      <point x="174" y="-8"/>
    </contour>
  </outline>
</glyph>
<glyph name="t" format="2">
  <advance width="330"/>
  <unicode hex="0074"/>
  <anchor x="170" y="0" name="bottom"/>
  <anchor x="170" y="743" name="top"/>
  <outline>
    <contour>
      <point x="113" y="0" type="line"/>
      <point x="195" y="0" type="line"/>
      <point x="195" y="688" type="line"/>
      <point x="113" y="688" type="line"/>
    </contour>
    <contour>
      <point x="10" y="440" type="line"/>
      <point x="130" y="440" type="line"/>
      <point x="130" y="510" type="line"/>
      <point x="10" y="510" type="line"/>
    </contour>
    <contour>
      <point x="179" y="440" type="line"/>
      <point x="327" y="440" type="line"/>
      <point x="327" y="510" type="line"/>
      <point x="179" y="510" type="line"/>
    </contour>
  </outline>
</glyph>
<glyph name="u" format="2">
  <advance width="526"/>
  <unicode hex="0075"/>
  <anchor x="263" y="0" name="bottom"/>
  <anchor x="473" y="10" name="ogonek"/>
  <anchor x="263" y="510" name="top"/>
  <anchor x="506" y="510" name="topright"/>
  <outline>
    <contour>
      <point x="476" y="510" type="line"/>
      <point x="394" y="510" type="line"/>
      <point x="394" y="241" type="line" smooth="yes"/>
      <point x="394" y="95"/>
      <point x="367" y="62"/>
      <point x="243" y="62" type="curve" smooth="yes"/>
      <point x="147" y="62"/>
      <point x="130" y="83"/>
      <point x="130" y="203" type="curve" smooth="yes"/>
      <point x="130" y="510" type="line"/>
      <point x="48" y="510" type="line"/>
      <point x="48" y="191" type="line" smooth="yes"/>
      <point x="48" y="47"/>
      <point x="96" y="-8"/>
      <point x="221" y="-8" type="curve" smooth="yes"/>
      <point x="316" y="-8"/>
      <point x="369" y="17"/>
      <point x="393" y="73" type="curve"/>
      <point x="397" y="73" type="line"/>
      <point x="406" y="0" type="line"/>
      <point x="476" y="0" type="line"/>
    </contour>
  </outline>
</glyph>
<glyph name="v" format="2">
  <advance width="504"/>
  <unicode hex="0076"/>
  <anchor x="251" y="0" name="bottom"/>
  <anchor x="251" y="510" name="top"/>
  <outline>
    <contour>
      <point x="207" y="0" type="line"/>
      <point x="297" y="0" type="line"/>
      <point x="491" y="510" type="line"/>
      <point x="406" y="510" type="line"/>
      <point x="254" y="90" type="line"/>
      <point x="250" y="90" type="line"/>
      <point x="98" y="510" type="line"/>
      <point x="13" y="510" type="line"/>
    </contour>
  </outline>
</glyph>
<glyph name="w" format="2">
  <advance width="654"/>
  <unicode hex="0077"/>
  <anchor x="329" y="0" name="bottom"/>
  <anchor x="329" y="510" name="top"/>
  <outline>
    <contour>
      <point x="113" y="0" type="line"/>
      <point x="234" y="0" type="line"/>
      <point x="327" y="428" type="line"/>
      <point x="420" y="0" type="line"/>
      <point x="541" y="0" type="line"/>
      <point x="641" y="510" type="line"/>
      <point x="557" y="510" type="line"/>
      <point x="482" y="90" type="line"/>
      <point x="478" y="90" type="line"/>
      <point x="386" y="510" type="line"/>
      <point x="268" y="510" type="line"/>
      <point x="176" y="90" type="line"/>
      <point x="172" y="90" type="line"/>
      <point x="97" y="510" type="line"/>
      <point x="13" y="510" type="line"/>
    </contour>
  </outline>
</glyph>
<glyph name="x" format="2">
  <advance width="482"/>
  <unicode hex="0078"/>
  <anchor x="238" y="0" name="bottom"/>
  <anchor x="238" y="510" name="top"/>
  <outline>
    <contour>
      <point x="373" y="0" type="line"/>
      <point x="472" y="0" type="line"/>
      <point x="108" y="510" type="line"/>
      <point x="10" y="510" type="line"/>
    </contour>
    <contour>
      <point x="10" y="0" type="line"/>
      <point x="109" y="0" type="line"/>
      <point x="472" y="510" type="line"/>
      <point x="373" y="510" type="line"/>
    </contour>
  </outline>
</glyph>
<glyph name="y" format="2">
  <advance width="526"/>
  <unicode hex="0079"/>
  <anchor x="265" y="0" name="bottom"/>
  <anchor x="265" y="510" name="top"/>
  <outline>
    <contour>
      <point x="271" y="-208" type="curve" smooth="yes"/>
      <point x="445" y="-208"/>
      <point x="476" y="-169"/>
      <point x="476" y="51" type="curve" smooth="yes"/>
      <point x="476" y="510" type="line"/>
      <point x="394" y="510" type="line"/>
      <point x="394" y="244" type="line" smooth="yes"/>
      <point x="394" y="95"/>
      <point x="377" y="62"/>
      <point x="243" y="62" type="curve" smooth="yes"/>
      <point x="139" y="62"/>
      <point x="130" y="83"/>
      <point x="130" y="203" type="curve" smooth="yes"/>
      <point x="130" y="510" type="line"/>
      <point x="48" y="510" type="line"/>
      <point x="48" y="251" type="line" smooth="yes"/>
      <point x="48" y="31"/>
      <point x="64" y="-8"/>
      <point x="221" y="-8" type="curve" smooth="yes"/>
      <point x="319" y="-8"/>
      <point x="365" y="17"/>
      <point x="390" y="73" type="curve"/>
      <point x="394" y="73" type="line"/>
      <point x="394" y="31" type="line" smooth="yes"/>
      <point x="394" y="-126"/>
      <point x="386" y="-138"/>
      <point x="268" y="-138" type="curve" smooth="yes"/>
      <point x="208" y="-138"/>
      <point x="131" y="-131"/>
      <point x="80" y="-120" type="curve"/>
      <point x="80" y="-188" type="line"/>
      <point x="124" y="-200"/>
      <point x="203" y="-208"/>
    </contour>
  </outline>
</glyph>
<glyph name="z" format="2">
  <advance width="430"/>
  <unicode hex="007A"/>
  <anchor x="221" y="0" name="bottom"/>
  <anchor x="215" y="255" name="center"/>
  <anchor x="221" y="510" name="top"/>
  <outline>
    <contour>
      <point x="13" y="0" type="line"/>
      <point x="417" y="0" type="line"/>
      <point x="417" y="70" type="line"/>
      <point x="119" y="70" type="line"/>
      <point x="119" y="74" type="line"/>
      <point x="415" y="447" type="line"/>
      <point x="415" y="510" type="line"/>
      <point x="25" y="510" type="line"/>
      <point x="25" y="440" type="line"/>
      <point x="309" y="440" type="line"/>
      <point x="309" y="436" type="line"/>
      <point x="13" y="63" type="line"/>
    </contour>
  </outline>
</glyph>
<glyph name="asciitilde" format="2">
  <advance width="497"/>
  <unicode hex="007E"/>
  <outline>
    <contour>
      <point x="67.217" y="239.761" type="curve"/>
      <point x="114.87" y="239.761" type="line"/>
      <point x="114.87" y="280.413"/>
      <point x="117.152" y="294.152"/>
      <point x="146.065" y="294.152" type="curve" smooth="yes"/>
      <point x="173.174" y="294.152"/>
      <point x="204.913" y="284.326"/>
      <point x="235.913" y="274.957" type="curve" smooth="yes"/>
      <point x="275.196" y="263.13"/>
      <point x="315.283" y="250.761"/>
      <point x="355.283" y="250.761" type="curve" smooth="yes"/>
      <point x="421.413" y="250.761"/>
      <point x="428.696" y="286.63"/>
      <point x="428.696" y="364.783" type="curve"/>
      <point x="381.587" y="364.783" type="line"/>
      <point x="381.587" y="324.13"/>
      <point x="379.304" y="310.391"/>
      <point x="350.391" y="310.391" type="curve" smooth="yes"/>
      <point x="323.283" y="310.391"/>
      <point x="291.543" y="320.217"/>
      <point x="260.087" y="329.587" type="curve" smooth="yes"/>
      <point x="221.261" y="341.413"/>
      <point x="181.174" y="353.783"/>
      <point x="141.174" y="353.783" type="curve" smooth="yes"/>
      <point x="74.5" y="353.783"/>
      <point x="67.217" y="317.913"/>
    </contour>
  </outline>
</glyph>
<glyph name="brokenbar" format="2">
  <advance width="276.95652"/>
  <unicode hex="00A6"/>
  <outline>
    <contour>
      <point x="101.413" y="390" type="line"/>
      <point x="175.543" y="390" type="line"/>
      <point x="175.543" y="743" type="line"/>
      <point x="101.413" y="743" type="line"/>
    </contour>
    <contour>
      <point x="101.413" y="-161" type="line"/>
      <point x="175.543" y="-161" type="line"/>
      <point x="175.543" y="192" type="line"/>
      <point x="101.413" y="192" type="line"/>
    </contour>
  </outline>
</glyph>
<glyph name="section" format="2">
  <advance width="695.73913"/>
  <unicode hex="00A7"/>
  <outline>
    <contour>
      <point x="327.087" y="-171" type="curve" smooth="yes"/>
      <point x="464.37" y="-171"/>
      <point x="547.065" y="-144.283"/>
      <point x="547.065" y="-19.217" type="curve" smooth="yes"/>
      <point x="547.065" y="15.065"/>
      <point x="546.522" y="49.261"/>
      <point x="530.957" y="76" type="curve"/>
      <point x="623.348" y="84.065"/>
      <point x="636.065" y="167.565"/>
      <point x="636.065" y="244.804" type="curve" smooth="yes"/>
      <point x="636.065" y="345.848"/>
      <point x="594.065" y="369.935"/>
      <point x="523.109" y="390.283" type="curve" smooth="yes"/>
      <point x="304.065" y="451.739" type="line" smooth="yes"/>
      <point x="241.522" y="468.761"/>
      <point x="230.87" y="480.152"/>
      <point x="230.87" y="543.957" type="curve" smooth="yes"/>
      <point x="230.87" y="617.783"/>
      <point x="277.326" y="621.783"/>
      <point x="402.457" y="621.783" type="curve" smooth="yes"/>
      <point x="449.913" y="621.783"/>
      <point x="508.848" y="618.326"/>
      <point x="545.065" y="614.5" type="curve"/>
      <point x="545.065" y="683.37" type="line"/>
      <point x="510.326" y="689.37"/>
      <point x="439.239" y="696"/>
      <point x="368.652" y="696" type="curve" smooth="yes"/>
      <point x="231.37" y="696"/>
      <point x="148.13" y="668.739"/>
      <point x="148.13" y="543.674" type="curve" smooth="yes"/>
      <point x="148.13" y="508.391"/>
      <point x="148.13" y="474.196"/>
      <point x="164.239" y="447.913" type="curve"/>
      <point x="71.391" y="439.391"/>
      <point x="59.13" y="356.891"/>
      <point x="59.13" y="279.109" type="curve" smooth="yes"/>
      <point x="59.13" y="178.065"/>
      <point x="97.022" y="154.348"/>
      <point x="174.37" y="133.174" type="curve" smooth="yes"/>
      <point x="402.543" y="69.978" type="line" smooth="yes"/>
      <point x="453.674" y="55.696"/>
      <point x="464.326" y="43.761"/>
      <point x="464.326" y="-18.957" type="curve" smooth="yes"/>
      <point x="464.326" y="-93.326"/>
      <point x="417.326" y="-97.326"/>
      <point x="292.739" y="-97.326" type="curve" smooth="yes"/>
      <point x="242.022" y="-97.326"/>
      <point x="184.174" y="-93.87"/>
      <point x="150.13" y="-89.5" type="curve"/>
      <point x="150.13" y="-158.37" type="line"/>
      <point x="184.87" y="-164.37"/>
      <point x="256.5" y="-171"/>
    </contour>
    <contour>
      <point x="139.152" y="296.457" type="curve" smooth="yes"/>
      <point x="139.152" y="365.152"/>
      <point x="160.543" y="395.087"/>
      <point x="200.957" y="395.087" type="curve" smooth="yes"/>
      <point x="215.413" y="395.087"/>
      <point x="233.957" y="388.543"/>
      <point x="261.457" y="381.348" type="curve" smooth="yes"/>
      <point x="488.435" y="319.609" type="line" smooth="yes"/>
      <point x="545.13" y="303.957"/>
      <point x="556.587" y="288.848"/>
      <point x="556.587" y="227" type="curve" smooth="yes"/>
      <point x="556.587" y="158.304"/>
      <point x="534.652" y="128.37"/>
      <point x="494.783" y="128.37" type="curve" smooth="yes"/>
      <point x="480.326" y="128.37"/>
      <point x="460.696" y="134.37"/>
      <point x="435.109" y="141.109" type="curve" smooth="yes"/>
      <point x="201.37" y="205.674" type="line" smooth="yes"/>
      <point x="150.065" y="219.5"/>
      <point x="139.152" y="234.609"/>
    </contour>
  </outline>
</glyph>
<glyph name="copyright" format="2">
  <advance width="732.69565"/>
  <unicode hex="00A9"/>
  <outline>
    <contour>
      <point x="365.804" y="-8" type="curve" smooth="yes"/>
      <point x="640.957" y="-8"/>
      <point x="647.587" y="39.152"/>
      <point x="647.587" y="344" type="curve" smooth="yes"/>
      <point x="647.587" y="648.304"/>
      <point x="640.957" y="696"/>
      <point x="365.804" y="696" type="curve" smooth="yes"/>
      <point x="91.196" y="696"/>
      <point x="85.109" y="648.304"/>
      <point x="85.109" y="344" type="curve" smooth="yes"/>
      <point x="85.109" y="39.152"/>
      <point x="91.196" y="-8"/>
    </contour>
    <contour>
      <point x="388.804" y="153.457" type="curve" smooth="yes"/>
      <point x="419.435" y="153.457"/>
      <point x="457.609" y="156"/>
      <point x="479.065" y="159.543" type="curve"/>
      <point x="479.065" y="205.848" type="line"/>
      <point x="458.522" y="202.848"/>
      <point x="425.696" y="200.848"/>
      <point x="399.87" y="200.848" type="curve" smooth="yes"/>
      <point x="302.109" y="200.848"/>
      <point x="293.913" y="211.674"/>
      <point x="293.913" y="342.913" type="curve" smooth="yes"/>
      <point x="293.913" y="473.609"/>
      <point x="302.109" y="484.435"/>
      <point x="399.87" y="484.435" type="curve" smooth="yes"/>
      <point x="422.522" y="484.435"/>
      <point x="454.348" y="482.435"/>
      <point x="477.065" y="479.435" type="curve"/>
      <point x="477.065" y="524.739" type="line"/>
      <point x="459.435" y="529.283"/>
      <point x="421.804" y="532.37"/>
      <point x="388.804" y="532.37" type="curve" smooth="yes"/>
      <point x="258.457" y="532.37"/>
      <point x="239" y="498.239"/>
      <point x="239" y="342.913" type="curve" smooth="yes"/>
      <point x="239" y="186.13"/>
      <point x="258.457" y="153.457"/>
    </contour>
    <contour>
      <point x="365.804" y="32.13" type="curve" smooth="yes"/>
      <point x="133.065" y="32.13"/>
      <point x="127.152" y="48.609"/>
      <point x="127.152" y="344" type="curve" smooth="yes"/>
      <point x="127.152" y="638.848"/>
      <point x="133.065" y="655.326"/>
      <point x="365.804" y="655.326" type="curve" smooth="yes"/>
      <point x="599.087" y="655.326"/>
      <point x="605" y="638.848"/>
      <point x="605" y="344" type="curve" smooth="yes"/>
      <point x="605" y="48.609"/>
      <point x="599.087" y="32.13"/>
    </contour>
  </outline>
</glyph>
<glyph name="idotless" format="2">
  <advance width="182"/>
  <unicode hex="0131"/>
  <anchor x="91" y="0" name="bottom"/>
  <anchor x="132" y="0" name="ogonek"/>
  <anchor x="91" y="510" name="top"/>
  <outline>
    <contour>
      <point x="50" y="0" type="line"/>
      <point x="132" y="0" type="line"/>
      <point x="132" y="510" type="line"/>
      <point x="50" y="510" type="line"/>
    </contour>
  </outline>
</glyph>
<glyph name="Nhookleft" format="2">
  <advance width="731.47826"/>
  <unicode hex="019D"/>
  <anchor x="365.739" y="0" name="bottom"/>
  <anchor x="365.739" y="688" name="top"/>
  <outline>
    <contour>
      <point x="4.304" y="-200" type="line"/>
      <point x="138.065" y="-200"/>
      <point x="182.609" y="-190.109"/>
      <point x="182.609" y="-62.783" type="curve" smooth="yes"/>
      <point x="182.609" y="537.217" type="line"/>
      <point x="186.609" y="537.217" type="line"/>
      <point x="548.87" y="0" type="line"/>
      <point x="631.696" y="0" type="line"/>
      <point x="631.696" y="688" type="line"/>
      <point x="548.87" y="688" type="line"/>
      <point x="548.87" y="160.565" type="line"/>
      <point x="544.87" y="160.565" type="line"/>
      <point x="188.043" y="688" type="line"/>
      <point x="99.783" y="688" type="line"/>
      <point x="99.783" y="-80.935" type="line" smooth="yes"/>
      <point x="99.783" y="-123.761"/>
      <point x="92.413" y="-136.304"/>
      <point x="4.304" y="-136.304" type="curve"/>
    </contour>
  </outline>
</glyph>
<glyph name="hungarumlautcomb" format="2">
  <advance width="347.30435"/>
  <unicode hex="030B"/>
  <anchor x="124.022" y="510" name="_top"/>
  <anchor x="124.478" y="683" name="top"/>
  <outline>
    <contour>
      <point x="0" y="594.587" type="line"/>
      <point x="52.543" y="594.587" type="line"/>
      <point x="165.804" y="712.478" type="line"/>
      <point x="165.804" y="717.478" type="line"/>
      <point x="88.826" y="717.478" type="line"/>
      <point x="0" y="599.587" type="line"/>
    </contour>
    <contour>
      <point x="180.957" y="594.587" type="line"/>
      <point x="233.5" y="594.587" type="line"/>
      <point x="347.304" y="712.478" type="line"/>
      <point x="347.304" y="717.478" type="line"/>
      <point x="269.783" y="717.478" type="line"/>
      <point x="180.957" y="599.587" type="line"/>
    </contour>
  </outline>
</glyph>
<glyph name="commaturnedabovecomb" format="2">
  <advance width="112.23913"/>
  <unicode hex="0312"/>
  <anchor x="45.739" y="510" name="_top"/>
  <anchor x="45.739" y="777.63" name="top"/>
  <outline>
    <contour>
      <point x="0" y="578.478" type="line"/>
      <point x="91.478" y="578.478" type="line"/>
      <point x="91.478" y="672.826" type="line"/>
      <point x="54.087" y="672.826" type="line"/>
      <point x="54.087" y="689.826" type="line" smooth="yes"/>
      <point x="54.087" y="730.674"/>
      <point x="63.978" y="740.326"/>
      <point x="112.239" y="740.326" type="curve"/>
      <point x="112.239" y="777.63" type="line"/>
      <point x="15.543" y="777.63"/>
      <point x="0" y="754.826"/>
      <point x="0" y="658.37" type="curve" smooth="yes"/>
    </contour>
  </outline>
</glyph>
<glyph name="guilsinglleft" format="2">
  <advance width="305.71739"/>
  <unicode hex="2039"/>
  <outline>
    <contour>
      <point x="177.87" y="99" type="line"/>
      <point x="236.043" y="99" type="line"/>
      <point x="122.478" y="304" type="line"/>
      <point x="236.043" y="510" type="line"/>
      <point x="177.87" y="510" type="line"/>
      <point x="45.87" y="304" type="line"/>
    </contour>
  </outline>
</glyph>
<glyph name="colonsign" format="2">
  <advance width="574.73913"/>
  <unicode hex="20A1"/>
  <outline>
    <contour>
      <point x="337.522" y="-83" type="line"/>
      <point x="398.152" y="-83" type="line"/>
      <point x="569.283" y="771" type="line"/>
      <point x="508.652" y="771" type="line"/>
    </contour>
    <contour>
      <point x="207.891" y="-83" type="line"/>
      <point x="269.065" y="-83" type="line"/>
      <point x="440.196" y="771" type="line"/>
      <point x="379.022" y="771" type="line"/>
    </contour>
    <component base="C"/>
  </outline>
</glyph>
<glyph name="franc" format="2">
  <advance width="565.34783"/>
  <unicode hex="20A3"/>
  <outline>
    <contour>
      <point x="0" y="124.978" type="line"/>
      <point x="389.848" y="124.978" type="line"/>
      <point x="389.848" y="179.261" type="line"/>
      <point x="0" y="179.261" type="line"/>
    </contour>
    <component base="F"/>
  </outline>
</glyph>
<glyph name="lira" format="2">
  <advance width="589.69565"/>
  <unicode hex="20A4"/>
  <outline>
    <contour>
      <point x="53.478" y="0" type="line"/>
      <point x="542.957" y="0" type="line"/>
      <point x="542.957" y="74.217" type="line"/>
      <point x="214.022" y="74.217" type="line"/>
      <point x="214.022" y="340.739" type="line" smooth="yes"/>
      <point x="214.022" y="579.652"/>
      <point x="218.913" y="621.783"/>
      <point x="399.543" y="621.783" type="curve" smooth="yes"/>
      <point x="437.413" y="621.783"/>
      <point x="490.783" y="617.326"/>
      <point x="530.957" y="611.87" type="curve"/>
      <point x="530.957" y="681.37" type="line"/>
      <point x="497.239" y="689.913"/>
      <point x="434.978" y="696"/>
      <point x="382.804" y="696" type="curve" smooth="yes"/>
      <point x="166.087" y="696"/>
      <point x="127.022" y="627.391"/>
      <point x="127.478" y="373.5" type="curve" smooth="yes"/>
      <point x="127.478" y="74.217" type="line"/>
      <point x="53.478" y="74.217" type="line"/>
    </contour>
    <contour>
      <point x="53.478" y="241.674" type="line"/>
      <point x="480.522" y="241.674" type="line"/>
      <point x="480.522" y="296.326" type="line"/>
      <point x="53.478" y="296.326" type="line"/>
    </contour>
    <contour>
      <point x="53.478" y="394.13" type="line"/>
      <point x="480.522" y="394.13" type="line"/>
      <point x="480.522" y="448.783" type="line"/>
      <point x="53.478" y="448.783" type="line"/>
    </contour>
  </outline>
</glyph>
<glyph name="peseta" format="2">
  <advance width="651.73913"/>
  <unicode hex="20A7"/>
  <outline>
    <contour>
      <point x="99.783" y="0" type="line"/>
      <point x="185.783" y="0" type="line"/>
      <point x="185.783" y="253.348" type="line"/>
      <point x="399.196" y="253.348" type="line" smooth="yes"/>
      <point x="565.935" y="253.348"/>
      <point x="594.978" y="339.37"/>
      <point x="598.152" y="447.804" type="curve"/>
      <point x="687.174" y="447.804" type="line"/>
      <point x="687.174" y="502.087" type="line"/>
      <point x="598.152" y="502.087" type="line"/>
      <point x="592.891" y="609.696"/>
      <point x="561.674" y="688"/>
      <point x="401.37" y="688" type="curve" smooth="yes"/>
      <point x="99.783" y="688" type="line"/>
      <point x="99.783" y="502.087" type="line"/>
      <point x="0" y="502.087" type="line"/>
      <point x="0.457" y="447.804" type="line"/>
      <point x="99.783" y="447.804" type="line"/>
    </contour>
    <contour>
      <point x="185.783" y="327.565" type="line"/>
      <point x="185.783" y="447.804" type="line"/>
      <point x="512.152" y="447.804" type="line"/>
      <point x="510.065" y="365.652"/>
      <point x="492.261" y="327.565"/>
      <point x="370.565" y="327.565" type="curve" smooth="yes"/>
    </contour>
    <contour>
      <point x="185.783" y="502.087" type="line"/>
      <point x="185.783" y="613.783" type="line"/>
      <point x="372.739" y="613.783" type="line" smooth="yes"/>
      <point x="489.63" y="613.783"/>
      <point x="508.978" y="578.152"/>
      <point x="512.152" y="502.087" type="curve"/>
    </contour>
  </outline>
</glyph>
<glyph name="dong" format="2">
  <advance width="570.02174"/>
  <unicode hex="20AB"/>
  <outline>
    <contour>
      <point x="237.739" y="72" type="curve" smooth="yes"/>
      <point x="306.87" y="72"/>
      <point x="371.696" y="83.543"/>
      <point x="401.326" y="152.674" type="curve"/>
      <point x="406.957" y="152.674" type="line"/>
      <point x="410.5" y="80" type="line"/>
      <point x="483.609" y="80" type="line"/>
      <point x="483.609" y="743" type="line"/>
      <point x="402.413" y="743" type="line"/>
      <point x="402.413" y="445.239" type="line"/>
      <point x="396.783" y="445.239" type="line"/>
      <point x="368.978" y="500.891"/>
      <point x="317.261" y="518"/>
      <point x="235.565" y="518" type="curve" smooth="yes"/>
      <point x="108.935" y="518"/>
      <point x="64.674" y="461.935"/>
      <point x="64.674" y="294.457" type="curve" smooth="yes"/>
      <point x="64.674" y="126.978"/>
      <point x="110.022" y="72"/>
    </contour>
    <contour>
      <point x="74.674" y="0" type="line"/>
      <point x="483.609" y="0" type="line"/>
      <point x="483.609" y="35.435" type="line"/>
      <point x="74.674" y="35.435" type="line"/>
    </contour>
    <contour>
      <point x="269.478" y="138.783" type="curve" smooth="yes"/>
      <point x="167.457" y="138.783"/>
      <point x="146.413" y="160.717"/>
      <point x="146.413" y="295" type="curve" smooth="yes"/>
      <point x="146.413" y="428.196"/>
      <point x="167.457" y="450.674"/>
      <point x="267.196" y="450.674" type="curve" smooth="yes"/>
      <point x="373" y="450.674"/>
      <point x="402.413" y="418.63"/>
      <point x="402.413" y="301.391" type="curve" smooth="yes"/>
      <point x="402.413" y="177.217"/>
      <point x="385.326" y="138.783"/>
    </contour>
    <contour>
      <point x="266.087" y="631.913" type="line"/>
      <point x="550.435" y="631.913" type="line"/>
      <point x="550.435" y="688" type="line"/>
      <point x="266.087" y="688" type="line"/>
    </contour>
  </outline>
</glyph>
<glyph name="brevecomb_hookabovecomb.case" format="2">
  <advance width="275.47826"/>
  <anchor x="138.239" y="510" name="_top"/>
  <anchor x="138.239" y="860.283" name="top"/>
  <outline>
    <contour>
      <point x="136.696" y="586.13" type="curve" smooth="yes"/>
      <point x="267.413" y="586.13"/>
      <point x="275.478" y="646.217"/>
      <point x="275.478" y="730.391" type="curve"/>
      <point x="222.196" y="730.391" type="line"/>
      <point x="222.196" y="670.065"/>
      <point x="220.196" y="637.5"/>
      <point x="136.696" y="637.5" type="curve" smooth="yes"/>
      <point x="53.196" y="637.5"/>
      <point x="52.739" y="670.065"/>
      <point x="52.739" y="730.391" type="curve"/>
      <point x="0" y="730.391" type="line"/>
      <point x="0" y="646.217"/>
      <point x="6.522" y="586.13"/>
    </contour>
    <contour>
      <point x="92.913" y="753.413" type="line"/>
      <point x="141.565" y="753.413" type="line"/>
      <point x="141.565" y="776.152"/>
      <point x="143.196" y="778.696"/>
      <point x="182.217" y="789.609" type="curve" smooth="yes"/>
      <point x="206.783" y="796.522" type="line" smooth="yes"/>
      <point x="256.609" y="810.522"/>
      <point x="268.674" y="826.348"/>
      <point x="268.674" y="871.413" type="curve" smooth="yes"/>
      <point x="268.674" y="940.913"/>
      <point x="224.978" y="948.826"/>
      <point x="137.696" y="948.826" type="curve" smooth="yes"/>
      <point x="103.435" y="948.826"/>
      <point x="53.717" y="945.739"/>
      <point x="21.174" y="941.196" type="curve"/>
      <point x="21.174" y="897.804" type="line"/>
      <point x="53.913" y="900.804"/>
      <point x="99.174" y="902.804"/>
      <point x="123.717" y="902.804" type="curve" smooth="yes"/>
      <point x="192.043" y="902.804"/>
      <point x="211.587" y="902.804"/>
      <point x="211.587" y="865.239" type="curve" smooth="yes"/>
      <point x="211.587" y="841.043"/>
      <point x="205.13" y="836.587"/>
      <point x="159.826" y="823.761" type="curve" smooth="yes"/>
      <point x="137.087" y="817.304" type="line" smooth="yes"/>
      <point x="102.37" y="807.217"/>
      <point x="92.913" y="793.239"/>
      <point x="92.913" y="762.783" type="curve" smooth="yes"/>
    </contour>
  </outline>
</glyph>
<glyph name="circumflexcomb_gravecomb.case" format="2">
  <advance width="289.34783"/>
  <anchor x="144.674" y="510" name="_top"/>
  <anchor x="145.217" y="861.457" name="top"/>
  <outline>
    <contour>
      <point x="0" y="595.043" type="line"/>
      <point x="55.804" y="595.043" type="line"/>
      <point x="144.13" y="691.63" type="line"/>
      <point x="233" y="595.043" type="line"/>
      <point x="289.348" y="595.043" type="line"/>
      <point x="289.348" y="601.13" type="line"/>
      <point x="187.239" y="735.761" type="line"/>
      <point x="101.565" y="735.761" type="line"/>
      <point x="0" y="601.13" type="line"/>
    </contour>
    <contour>
      <point x="138.609" y="773.043" type="line"/>
      <point x="198.761" y="773.043" type="line"/>
      <point x="198.761" y="778.043" type="line"/>
      <point x="97.739" y="913.304" type="line"/>
      <point x="9.891" y="913.304" type="line"/>
      <point x="9.891" y="908.304" type="line"/>
    </contour>
  </outline>
</glyph>
<glyph name="e.001" format="2">
  <advance width="566"/>
  <anchor x="283" y="0" name="bottom"/>
  <anchor x="509" y="10" name="ogonek"/>
  <anchor x="283" y="510" name="top"/>
  <outline>
    <contour>
      <point x="289" y="-8" type="curve" smooth="yes"/>
      <point x="360" y="-8"/>
      <point x="444" y="0"/>
      <point x="490" y="12" type="curve"/>
      <point x="490" y="80" type="line"/>
      <point x="436" y="69"/>
      <point x="353" y="62"/>
      <point x="289" y="62" type="curve" smooth="yes"/>
      <point x="161" y="62"/>
      <point x="152" y="74"/>
      <point x="152" y="231" type="curve" smooth="yes"/>
      <point x="152" y="279" type="line" smooth="yes"/>
      <point x="152" y="436"/>
      <point x="161" y="448"/>
      <point x="289" y="448" type="curve" smooth="yes"/>
      <point x="412" y="448"/>
      <point x="421" y="436"/>
      <point x="421" y="279" type="curve" smooth="yes"/>
      <point x="421" y="251" type="line"/>
      <point x="459" y="286" type="line"/>
      <point x="110" y="286" type="line"/>
      <point x="110" y="216" type="line"/>
      <point x="503" y="216" type="line"/>
      <point x="503" y="259" type="line" smooth="yes"/>
      <point x="503" y="479"/>
      <point x="471" y="518"/>
      <point x="289" y="518" type="curve" smooth="yes"/>
      <point x="103" y="518"/>
      <point x="70" y="479"/>
      <point x="70" y="259" type="curve" smooth="yes"/>
      <point x="70" y="251" type="line" smooth="yes"/>
      <point x="70" y="31"/>
      <point x="103" y="-8"/>
    </contour>
  </outline>
</glyph>
<glyph name="nine.tosf" format="2">
  <advance width="620"/>
  <outline>
    <contour>
      <point x="286.261" y="-7" type="curve" smooth="yes"/>
      <point x="414.891" y="-7"/>
      <point x="478.63" y="13.804"/>
      <point x="508.435" y="79.196" type="curve" smooth="yes"/>
      <point x="532.239" y="131.848"/>
      <point x="537.957" y="201.217"/>
      <point x="537.957" y="298.283" type="curve" smooth="yes"/>
      <point x="537.957" y="399.978"/>
      <point x="533.239" y="465.87"/>
      <point x="512.978" y="514.435" type="curve" smooth="yes"/>
      <point x="484.543" y="581.457"/>
      <point x="416.804" y="592"/>
      <point x="292.261" y="592" type="curve" smooth="yes"/>
      <point x="102.739" y="592"/>
      <point x="65.935" y="546.478"/>
      <point x="65.935" y="399.478" type="curve" smooth="yes"/>
      <point x="65.935" y="257.022"/>
      <point x="125.826" y="234.043"/>
      <point x="276.87" y="234.043" type="curve" smooth="yes"/>
      <point x="390.565" y="234.043"/>
      <point x="430.761" y="255.587"/>
      <point x="449.674" y="276.413" type="curve"/>
      <point x="455.13" y="276.413" type="line"/>
      <point x="455.13" y="92.804"/>
      <point x="434.935" y="60.783"/>
      <point x="269.565" y="60.783" type="curve" smooth="yes"/>
      <point x="225.739" y="60.783"/>
      <point x="154.109" y="65.87"/>
      <point x="100.478" y="71.87" type="curve"/>
      <point x="100.478" y="8.261" type="line"/>
      <point x="158.826" y="0.087"/>
      <point x="234.543" y="-7"/>
    </contour>
    <contour>
      <point x="299.717" y="301.283" type="curve" smooth="yes"/>
      <point x="172.696" y="301.283"/>
      <point x="146.587" y="308.739"/>
      <point x="146.587" y="415.478" type="curve" smooth="yes"/>
      <point x="146.587" y="514.022"/>
      <point x="176.065" y="524.217"/>
      <point x="299.717" y="524.217" type="curve" smooth="yes"/>
      <point x="417.739" y="524.217"/>
      <point x="452.13" y="512.283"/>
      <point x="452.13" y="393.174" type="curve" smooth="yes"/>
      <point x="452.13" y="327.391"/>
      <point x="438.935" y="301.283"/>
    </contour>
  </outline>
</glyph>
<glyph name="seven.numr" format="2">
  <advance width="329.36957"/>
  <outline>
    <contour>
      <point x="77.587" y="308" type="line"/>
      <point x="144.13" y="308" type="line"/>
      <point x="300.63" y="640.87" type="line"/>
      <point x="300.63" y="685.087" type="line"/>
      <point x="24.37" y="685.087" type="line"/>
      <point x="24.37" y="635.783" type="line"/>
      <point x="235.717" y="635.783" type="line"/>
    </contour>
  </outline>
</glyph>
